<?xml version="1.0" standalone="no"?>
<!DOCTYPE svg PUBLIC "-//W3C//DTD SVG 20010904//EN"
 "http://www.w3.org/TR/2001/REC-SVG-20010904/DTD/svg10.dtd">
<svg version="1.0" xmlns="http://www.w3.org/2000/svg"
 width="474.000000pt" height="378.000000pt" viewBox="0 0 474.000000 378.000000"
 preserveAspectRatio="xMidYMid meet">
<metadata>
Created by potrace 1.16, written by Peter Selinger 2001-2019
</metadata>
<g transform="translate(0.000000,378.000000) scale(0.100000,-0.100000)"
fill="#000000" stroke="none">
<path d="M0 1890 l0 -1890 889 0 c702 0 891 3 895 13 5 9 7 9 12 0 3 -8 24
-13 49 -13 38 0 43 3 47 25 6 28 4 29 -24 14 -25 -13 -45 3 -49 41 -4 32 8 51
27 43 13 -5 13 -7 2 -14 -9 -6 -6 -9 10 -9 13 0 20 4 17 10 -9 15 8 12 33 -6
24 -17 39 -14 27 5 -3 6 -10 9 -15 6 -5 -3 -11 -1 -15 5 -3 5 6 12 20 16 14 3
25 10 25 14 0 16 -23 23 -74 24 -47 1 -51 3 -51 26 0 14 -11 37 -25 51 -20 20
-28 23 -40 14 -13 -10 -34 -12 -87 -6 -7 0 -13 10 -13 20 0 11 -5 21 -11 23
-6 2 -2 12 8 23 15 16 17 24 9 42 -14 30 -21 29 -64 -12 -35 -33 -60 -47 -47
-26 3 5 0 13 -6 17 -8 5 -10 -2 -7 -24 3 -20 1 -29 -6 -25 -21 12 -48 38 -58
56 -8 17 -7 18 14 12 16 -4 19 -3 9 3 -7 6 -10 15 -6 22 6 9 9 9 16 -1 7 -11
9 -11 9 -1 0 8 5 10 13 6 9 -6 9 -4 1 7 -6 8 -12 48 -13 89 -2 73 -12 95 -38
85 -7 -2 -13 0 -13 5 0 6 5 10 10 10 6 0 10 5 10 10 0 6 -7 10 -15 10 -8 0
-15 -7 -15 -16 0 -11 -6 -14 -20 -9 -14 5 -20 2 -20 -9 0 -17 -15 -22 -24 -7
-4 5 0 12 6 15 7 3 -2 5 -19 3 -18 -2 -33 0 -33 5 0 5 -4 7 -9 4 -5 -4 -12 7
-16 24 -4 17 -11 28 -16 24 -5 -3 -9 -1 -9 4 0 19 389 29 407 11 9 -9 19 -9
42 0 22 10 104 12 314 9 307 -3 304 -3 326 -60 11 -30 -5 -54 -43 -64 -20 -5
-24 -9 -15 -14 23 -12 61 -5 75 15 13 18 15 18 53 1 l39 -18 7 -76 c8 -83 23
-140 24 -90 2 59 30 31 31 -29 0 -13 5 -23 11 -23 5 0 7 5 4 10 -3 6 -1 10 4
10 15 0 14 -15 -3 -29 -14 -12 -19 -94 -4 -85 4 3 5 11 1 17 -5 9 -3 9 8 0 12
-10 15 -8 16 8 1 10 -5 19 -13 19 -8 0 -14 7 -14 16 0 13 3 14 13 5 11 -8 14
0 16 41 3 74 17 94 26 37 4 -24 6 -49 5 -54 -6 -29 1 -75 11 -70 6 4 8 14 4
22 -4 13 -3 14 10 3 13 -11 15 -5 15 51 0 68 12 104 24 74 3 -9 6 -52 6 -96 0
-72 10 -99 24 -66 2 6 4 3 3 -8 -1 -11 2 -21 8 -22 6 -2 8 27 6 72 -1 41 1 89
5 107 6 29 8 30 15 13 4 -11 8 -57 8 -101 1 -61 -3 -85 -14 -94 -8 -7 -12 -16
-9 -21 3 -5 0 -8 -7 -7 -6 2 -14 -3 -16 -9 -7 -20 12 -15 32 7 10 11 23 20 29
20 6 0 5 -5 -2 -12 -19 -19 -14 -24 23 -25 19 -1 35 3 35 9 0 5 4 7 9 4 5 -4
12 0 14 6 3 8 6 6 6 -4 1 -10 6 -18 12 -18 6 0 8 7 5 16 -3 9 -2 12 5 9 5 -4
18 -1 27 6 14 11 15 11 5 -1 -17 -19 -16 -30 2 -30 8 0 15 5 15 11 0 8 5 7 15
-1 21 -17 29 -7 14 18 -21 34 -48 45 -65 27 -25 -24 -30 -17 -6 8 19 20 22 35
22 110 0 51 4 87 10 87 10 0 15 -53 12 -143 -1 -41 3 -53 26 -73 24 -20 28
-21 39 -8 7 10 13 12 18 5 3 -6 1 -11 -4 -11 -6 0 -11 -7 -11 -15 0 -18 16
-20 24 -2 5 9 7 9 12 0 7 -16 34 -17 34 -2 0 8 5 8 15 -1 12 -10 18 -10 32 1
13 11 17 11 20 1 3 -6 14 -12 24 -12 12 0 17 4 14 11 -4 6 3 5 14 -3 14 -8 24
-9 29 -3 10 14 32 17 32 4 0 -6 15 -9 38 -7 32 3 37 0 40 -19 2 -13 10 -23 18
-23 11 0 14 28 14 158 l0 158 -54 53 c-35 34 -58 51 -67 46 -7 -5 -10 -4 -6 2
7 11 -16 36 -25 28 -3 -3 -11 3 -19 12 -13 17 -13 17 6 4 19 -14 19 -14 3 3
-9 10 -21 15 -28 11 -8 -5 4 -24 37 -58 l48 -51 -47 42 c-48 43 -74 57 -45 24
10 -10 15 -21 12 -24 -3 -3 5 -13 17 -24 12 -10 18 -13 13 -5 -5 10 -4 12 4 7
6 -4 8 -12 5 -18 -4 -6 0 -14 7 -19 11 -7 11 -9 1 -9 -7 0 -11 -4 -8 -9 3 -4
-12 -5 -34 -1 -55 10 -211 13 -256 4 -24 -4 -38 -13 -41 -25 -3 -11 -8 -19
-12 -19 -15 0 -93 64 -102 84 -8 18 -9 17 -4 -6 5 -24 2 -28 -18 -28 -13 0
-28 5 -35 12 -9 9 -12 9 -12 -1 0 -14 -41 -11 -52 4 -5 7 -10 7 -15 0 -5 -5
-36 -11 -70 -12 l-61 -1 -4 49 c-3 43 -1 49 14 46 10 -3 16 0 15 6 -3 14 24
16 40 4 21 -15 83 -26 83 -15 0 6 8 17 18 24 14 10 22 9 49 -7 18 -11 37 -18
43 -14 5 3 10 1 10 -4 0 -6 7 -11 15 -11 10 0 15 -11 15 -35 0 -28 4 -35 20
-35 15 0 20 7 20 25 0 14 5 25 10 25 6 0 10 -11 10 -25 0 -14 6 -25 13 -25 8
0 13 10 13 23 -1 16 5 23 22 25 12 2 22 7 22 12 0 5 -7 7 -16 3 -13 -5 -15 -2
-10 14 6 18 3 20 -19 15 -17 -3 -24 -9 -21 -18 3 -8 -1 -14 -9 -14 -8 0 -15 5
-15 10 0 6 -14 10 -32 10 -31 0 -31 0 -12 22 19 21 19 21 -3 16 -14 -4 -23 -2
-23 5 0 6 -7 2 -15 -9 -13 -16 -14 -16 -9 -1 5 12 2 16 -9 11 -9 -3 -21 4 -31
18 -9 12 -16 18 -16 13 0 -5 -6 -1 -13 9 -12 16 -13 13 -9 -20 2 -22 1 -36 -3
-32 -4 4 -14 1 -22 -7 -33 -33 -90 2 -81 49 3 14 2 24 -1 23 -11 -3 -51 30
-44 36 3 4 24 7 45 7 24 0 37 4 33 10 -4 6 -158 10 -429 10 -292 0 -425 3
-433 11 -8 8 -17 8 -31 0 -23 -12 -325 -14 -427 -2 -59 6 -59 7 -23 14 32 7
36 11 34 34 -4 38 -26 49 -73 37 -27 -6 -38 -14 -37 -27 1 -9 -2 -15 -6 -12
-4 3 -9 51 -10 107 -1 57 -3 117 -5 133 -2 17 -3 41 -4 54 -1 15 -6 21 -14 18
-15 -6 -145 108 -135 118 4 4 14 -2 24 -14 10 -11 22 -18 26 -14 5 3 1 15 -9
26 -9 12 3 2 29 -22 30 -28 45 -50 43 -62 -3 -17 3 -19 52 -19 46 0 56 -3 60
-20 3 -11 9 -20 14 -20 5 0 6 7 3 15 -4 8 -1 15 5 15 6 0 11 -7 11 -15 0 -8 7
-15 15 -15 8 0 14 5 13 11 -2 6 3 14 10 16 6 3 12 -2 12 -11 0 -9 7 -16 15
-16 8 0 14 5 13 11 -2 6 3 14 10 16 6 3 12 -2 12 -11 0 -9 6 -16 13 -16 7 0
13 16 14 41 2 38 1 40 -16 25 -10 -9 -33 -15 -52 -15 -34 2 -34 2 6 8 33 5 41
10 43 31 2 13 11 29 19 35 13 10 13 13 -1 24 -26 22 -19 31 24 31 l40 0 1 -52
c0 -29 3 -47 6 -40 2 6 17 12 31 12 41 1 62 22 62 63 0 41 -7 45 -100 49 -48
3 -55 6 -58 25 -3 22 -7 23 -101 23 -76 0 -101 3 -111 15 -12 14 -15 14 -30 0
-9 -8 -24 -15 -34 -15 -11 0 -15 -4 -10 -12 5 -9 2 -9 -9 1 -18 14 -24 26 -8
17 4 -3 13 21 18 54 5 33 6 60 2 60 -4 0 -9 -10 -11 -22 l-3 -23 -233 0 c-147
0 -233 4 -234 10 0 6 -8 15 -17 22 -14 11 -14 12 -1 13 9 0 24 -9 33 -21 10
-11 21 -18 25 -14 4 4 1 10 -5 12 -20 7 -15 25 5 21 9 -1 23 1 30 6 7 4 19 3
26 -3 9 -7 16 -7 25 2 9 9 14 9 19 0 5 -8 12 -8 26 3 11 8 14 14 8 14 -20 0
-13 17 11 26 16 6 6 9 -43 13 -48 4 -22 7 100 11 l165 5 3 108 3 107 -173 2
-173 2 170 3 c93 2 173 7 178 12 5 5 -32 12 -85 16 -51 4 -106 9 -123 12 -16
2 -38 4 -48 4 -9 0 -15 4 -13 8 3 4 -13 6 -35 5 -21 -1 -42 2 -45 8 -3 5 -11
5 -19 -2 -8 -6 -16 -7 -19 -2 -3 5 -17 7 -31 4 -15 -2 -25 0 -25 7 0 6 7 11
15 11 23 0 18 18 -7 23 -13 2 93 5 234 6 l257 1 3 -27 c2 -22 8 -28 28 -28 20
0 26 -6 28 -27 3 -22 8 -27 27 -26 13 1 23 5 23 8 -1 3 4 16 10 30 7 16 11 19
11 8 1 -11 7 -15 23 -11 22 4 22 4 4 -11 -10 -8 -23 -13 -27 -10 -4 2 -6 -4
-4 -15 4 -23 -19 -48 -30 -31 -14 22 -35 10 -35 -20 0 -30 0 -30 58 -30 48 0
62 4 80 23 20 21 22 34 22 147 0 68 2 121 4 119 3 -2 6 -57 7 -121 2 -64 6
-115 8 -112 6 6 7 13 9 63 2 44 10 36 21 -20 l9 -44 1 64 c2 97 12 67 16 -48
2 -67 0 -99 -7 -95 -5 3 -27 -11 -49 -32 -21 -21 -39 -33 -39 -26 0 7 15 26
33 42 17 16 27 30 20 30 -6 0 -10 11 -9 25 3 20 0 23 -14 15 -9 -5 -22 -16
-30 -24 -9 -12 -31 -16 -76 -16 l-64 0 0 -99 c0 -104 3 -111 50 -111 11 0 24
-8 29 -17 8 -15 11 -15 12 -3 1 8 1 21 0 28 -1 6 5 12 14 12 10 0 15 -9 15
-27 0 -19 3 -24 9 -15 10 16 63 12 69 -5 2 -7 -3 -13 -11 -13 -9 0 -18 6 -20
13 -3 7 -6 5 -6 -5 -1 -15 8 -18 44 -18 25 0 45 -4 45 -10 0 -5 7 -7 15 -4 8
4 15 1 15 -4 0 -6 -8 -13 -17 -15 -14 -4 -12 -5 5 -6 19 -1 22 4 22 38 0 39 0
39 41 39 35 1 40 -2 36 -18 -3 -12 8 -31 34 -56 22 -21 37 -44 34 -52 -2 -7
-1 -11 3 -8 4 2 7 -31 7 -75 l0 -79 -45 -45 c-24 -25 -40 -45 -35 -45 5 0 -4
-15 -20 -32 -17 -18 3 -2 43 37 l72 69 0 97 0 97 -40 32 c-30 24 -40 39 -40
61 0 24 -4 29 -25 29 -16 0 -25 6 -25 16 0 12 10 15 48 14 67 -2 72 -2 72 14
0 11 -24 14 -117 14 -299 -1 -321 1 -318 20 2 9 4 20 4 25 1 4 27 7 59 7 54 0
60 2 97 40 21 22 44 40 49 40 6 0 -11 -22 -37 -48 -47 -48 -48 -48 -101 -44
-33 2 -56 0 -61 -7 -5 -8 12 -11 59 -10 59 2 68 5 97 35 23 23 36 31 44 24 8
-7 18 -4 30 10 10 11 13 20 7 20 -7 0 -12 -4 -12 -10 0 -5 -7 -10 -17 -10 -15
0 -15 1 0 18 14 16 17 43 17 175 l0 157 47 45 c39 38 48 43 55 30 5 -8 7 -24
3 -34 -8 -27 11 -68 35 -76 13 -4 19 -12 16 -21 -4 -10 3 -14 24 -14 17 0 30
-4 30 -10 0 -5 -12 -10 -27 -10 -16 0 -35 -5 -43 -10 -15 -10 -17 -15 -19 -64
-1 -28 -2 -29 -21 -11 -18 16 -20 16 -35 1 -15 -15 -15 -17 1 -33 13 -13 19
-14 22 -5 5 17 32 15 32 -3 0 -8 -7 -15 -16 -15 -8 0 -12 -5 -9 -11 5 -7 14
-4 26 7 17 15 19 15 19 1 0 -8 -6 -17 -12 -20 -7 -2 -10 -8 -6 -12 4 -4 14 0
23 9 9 9 27 16 41 16 l24 0 0 -140 c0 -105 3 -140 13 -141 6 -1 -6 -7 -28 -15
l-40 -14 40 3 40 2 0 -157 c0 -86 -3 -154 -7 -151 -12 6 -10 -1 7 -33 14 -27
15 -15 15 149 0 111 4 177 10 177 11 0 12 -26 10 -207 -1 -73 3 -113 9 -113 7
0 12 57 13 163 l2 162 6 -165 c3 -91 8 -160 11 -155 3 6 5 79 5 163 -1 83 2
152 7 152 4 0 7 -73 7 -162 0 -89 3 -159 6 -156 3 3 5 76 5 162 0 92 4 156 9
156 6 0 11 -63 11 -150 1 -82 3 -154 4 -160 1 -5 3 -17 4 -27 0 -9 3 -14 6
-11 3 3 6 85 7 182 l2 176 30 1 31 1 -30 13 c-16 8 -24 14 -17 15 7 0 12 14
13 33 0 17 2 28 5 22 2 -6 37 -9 84 -7 68 3 80 1 80 -13 0 -13 -9 -16 -47 -14
-46 3 -48 2 -50 -25 -1 -18 -16 -44 -38 -66 l-35 -36 0 -95 0 -94 88 -88 c48
-48 91 -84 95 -81 4 4 7 2 7 -4 0 -7 18 -28 40 -48 22 -20 40 -44 40 -54 0
-24 30 -34 48 -16 21 21 7 48 -22 44 -27 -3 -59 19 -49 35 3 5 1 7 -4 4 -6 -4
-13 3 -16 14 -3 12 -10 18 -15 15 -6 -3 -13 1 -16 9 -3 8 -9 14 -13 13 -4 -2
-9 2 -11 7 -5 18 -145 154 -154 149 -4 -3 -8 38 -8 90 l0 96 40 36 c25 23 40
45 40 60 0 20 5 23 40 22 40 0 40 0 41 -42 1 -22 3 -34 6 -25 5 19 31 28 88
30 23 1 31 4 18 6 -13 2 -23 11 -23 19 0 18 66 19 73 2 3 -7 6 2 6 20 1 40 21
43 21 3 0 -35 16 -49 23 -21 4 15 14 20 42 20 l36 0 -1 108 c-2 223 -1 242 16
242 8 0 12 -4 9 -10 -3 -5 1 -10 9 -10 9 0 16 7 16 16 0 10 5 14 15 10 14 -5
13 -2 0 24 -16 32 -8 38 25 20 11 -6 17 -17 14 -25 -4 -8 -1 -15 5 -15 6 0 11
9 11 20 0 27 28 25 33 -2 4 -20 4 -19 6 5 0 17 7 27 16 27 8 0 15 9 15 20 0
22 -16 27 -23 8 -9 -26 -25 8 -30 67 -3 33 -3 50 0 38 11 -53 23 -15 26 85 l3
107 2 -133 c1 -92 5 -131 13 -127 7 5 9 35 4 89 -4 51 -2 87 5 96 8 11 9 4 4
-26 -4 -26 0 -56 10 -85 l17 -44 -5 55 c-3 30 -1 75 4 100 l9 45 -4 -56 c-2
-31 1 -62 7 -70 6 -9 8 16 5 79 -4 73 -2 92 9 92 15 0 19 -16 6 -22 -5 -1 -5
-28 -2 -58 5 -36 8 -44 9 -22 2 61 21 32 22 -35 1 -38 3 -60 6 -50 2 9 8 17
12 17 5 0 7 37 5 83 -2 53 0 72 5 52 l8 -30 11 25 11 25 1 -25 2 -25 8 25 8
25 2 -27 c1 -16 4 -32 5 -38 1 -5 3 -13 4 -17 1 -5 6 -1 11 7 8 13 11 12 25
-5 9 -11 14 -15 11 -8 -8 16 13 21 47 12 39 -11 34 4 -18 60 -27 29 -39 48
-30 48 8 0 15 -4 15 -9 0 -5 5 -6 10 -3 6 4 7 12 3 18 -3 7 3 4 15 -6 20 -18
48 -15 37 4 -8 13 26 -1 50 -20 20 -16 20 -16 1 7 -32 38 2 25 47 -17 39 -37
112 -91 122 -91 3 0 5 7 5 16 0 8 -4 13 -9 9 -18 -11 -20 11 -3 26 25 21 42
12 41 -19 l-1 -27 -9 25 -8 25 2 -25 c1 -17 8 -25 22 -26 76 -4 75 -3 75 -28
0 -14 5 -28 10 -31 6 -3 10 1 10 9 0 26 30 46 71 46 33 0 39 -3 39 -21 0 -38
19 -60 45 -53 19 5 25 2 25 -10 0 -9 -4 -16 -10 -16 -5 0 -10 -18 -10 -39 l0
-40 38 6 c50 8 53 13 9 13 -26 0 -37 4 -37 15 0 11 10 15 38 14 37 -1 37 -1 7
-9 l-30 -8 33 -1 c47 -1 36 22 -14 30 l-39 6 37 2 c61 2 64 -2 58 -69 -3 -32
-8 -60 -10 -62 -3 -2 -16 -9 -29 -16 -19 -11 -22 -11 -15 0 6 10 4 10 -9 -1
-13 -10 -15 -17 -6 -27 9 -11 6 -16 -12 -23 -13 -5 -17 -10 -9 -10 8 -1 33 17
55 39 38 38 64 52 49 28 -4 -6 -3 -8 3 -5 6 4 9 21 7 39 -3 22 -1 28 5 19 5
-8 7 -21 3 -30 -3 -10 5 -7 22 9 26 23 27 25 8 28 -15 2 -21 11 -21 30 0 43
-5 67 -16 74 -5 4 -6 10 -2 15 11 11 26 -17 19 -35 -4 -12 1 -11 21 4 20 14
27 29 28 59 l2 40 4 -40 c6 -53 23 -70 23 -23 0 20 4 39 9 42 5 3 7 -10 5 -30
-3 -36 -3 -36 19 -19 12 10 0 -3 -26 -28 -34 -32 -48 -54 -46 -69 3 -36 -8
-54 -90 -135 -42 -42 -71 -74 -64 -72 6 2 41 32 77 67 35 34 67 58 70 53 4 -5
-2 -16 -11 -23 -10 -8 -31 -29 -48 -48 l-30 -35 34 30 c22 20 35 26 38 18 3
-7 14 -14 26 -14 19 -1 18 -2 -4 -8 -25 -6 -219 -181 -201 -181 4 0 23 16 42
35 25 26 37 32 47 24 7 -6 10 -16 7 -21 -3 -5 -9 -7 -12 -4 -8 9 -32 -15 -26
-26 3 -5 17 1 30 13 20 18 22 25 11 38 -11 14 -10 14 6 2 16 -13 22 -10 56 23
l38 37 249 -1 249 -1 -3 28 c-2 20 0 24 7 14 7 -10 30 -13 91 -12 45 1 88 5
96 8 17 6 19 33 2 33 -9 0 -8 4 2 10 10 6 11 10 3 10 -7 0 -13 12 -13 28 0 22
2 24 11 12 8 -11 9 -7 5 17 -4 26 -2 32 15 35 19 3 20 11 22 176 2 169 2 173
-19 178 -19 5 -21 11 -18 45 2 21 6 57 8 79 4 38 3 40 -32 46 -38 7 -77 34
-49 34 7 0 24 11 37 24 12 14 36 28 53 32 25 5 27 8 14 16 -11 6 -24 5 -38 -2
-27 -15 -36 -5 -16 18 11 12 13 22 7 32 -8 12 -10 12 -10 1 0 -9 -7 -6 -20 9
-25 28 -25 37 -2 43 16 4 16 5 -1 6 -26 1 -95 -36 -109 -59 -7 -11 -19 -20
-27 -20 -7 0 -20 -8 -28 -18 -8 -9 -12 -11 -8 -4 3 6 2 12 -4 12 -5 0 -13 21
-18 48 l-8 47 -6 -55 -6 -55 -1 53 c-2 44 -5 54 -24 62 -18 7 -19 9 -5 9 9 1
17 6 17 12 0 6 -9 8 -20 4 -12 -4 -20 -2 -20 5 0 7 -8 9 -20 5 -15 -5 -18 -3
-14 9 7 19 -12 22 -20 4 -3 -9 -8 -8 -16 5 -9 13 -15 15 -25 7 -10 -8 -12 -4
-11 19 0 16 4 27 8 25 3 -2 9 0 13 5 3 5 -12 12 -32 14 -36 3 -36 4 8 5 53 2
64 9 47 30 -7 8 -13 44 -13 83 0 38 -4 69 -9 69 -4 0 -6 6 -3 14 3 8 -6 27
-21 42 -15 15 -20 24 -12 19 9 -5 7 1 -5 14 -11 13 -20 35 -20 50 0 21 -4 26
-25 25 -39 -2 -53 19 -29 44 10 12 19 26 19 32 0 5 5 10 12 10 6 0 8 3 5 6 -4
4 -18 -1 -32 -10 -14 -9 -25 -12 -25 -6 0 5 5 10 10 10 6 0 10 7 10 15 0 8 -6
15 -12 15 -9 0 -10 3 -2 8 7 5 3 24 -12 62 -13 30 -23 47 -24 38 0 -24 -80
-26 -80 -3 0 11 8 13 32 8 27 -5 30 -4 25 11 -4 10 -7 20 -7 22 0 2 -7 4 -15
4 -8 0 -15 -4 -15 -10 0 -5 -12 -13 -27 -16 -16 -4 -34 -11 -40 -17 -17 -13
-16 -37 0 -37 8 0 19 -11 25 -24 7 -16 21 -26 39 -28 20 -2 28 -9 29 -23 1
-12 13 -43 28 -69 21 -38 24 -51 15 -62 -7 -9 -8 -14 -1 -14 6 0 12 6 15 13 2
6 8 9 12 5 4 -4 0 -17 -9 -30 -20 -28 -20 -39 -1 -32 17 7 21 -11 5 -21 -12
-8 -3 -46 14 -57 7 -5 7 -8 -3 -8 -10 0 -11 -4 -3 -12 11 -14 -4 -85 -26 -125
-6 -12 -10 -28 -7 -36 3 -7 1 -25 -4 -40 -8 -19 -15 -25 -28 -21 -14 4 -15 4
-4 -4 9 -7 10 -11 2 -17 -9 -5 -9 -11 1 -23 12 -15 11 -16 -4 -3 -15 11 -19
11 -24 -3 -3 -9 -10 -16 -15 -16 -4 0 -25 -11 -45 -25 -39 -26 -56 -26 -34 0
9 11 10 19 2 27 -13 13 -33 2 -26 -16 3 -8 1 -17 -5 -21 -7 -3 -11 3 -12 17
-1 17 -3 18 -6 5 -2 -9 -9 -15 -14 -12 -5 4 -9 1 -9 -5 0 -6 -5 -8 -12 -4 -8
5 -9 0 -5 -15 5 -22 5 -22 -14 -5 -10 9 -19 25 -19 36 0 28 -17 21 -23 -9 -4
-22 1 -35 24 -58 39 -42 37 -53 -3 -16 -18 17 -36 31 -40 31 -5 0 -9 15 -9 33
-1 20 -3 24 -6 11 -3 -16 -10 -20 -29 -16 -18 3 -24 0 -25 -14 -1 -11 -5 -6
-9 11 -6 22 -8 25 -10 10 -2 -17 -3 -17 -10 5 l-8 25 -2 -25 c-1 -25 -1 -25
-10 -2 -10 23 -30 31 -30 11 0 -8 -5 -8 -15 1 -8 7 -13 16 -10 19 2 4 -2 8 -9
8 -14 0 -11 -21 5 -42 13 -17 -28 -16 -42 1 -8 9 -32 14 -75 14 -36 0 -64 4
-64 10 0 19 -32 10 -37 -10 -4 -13 -14 -20 -30 -20 -13 0 -21 4 -18 10 3 6 5
10 3 10 -2 0 -29 4 -61 10 -32 5 -105 10 -163 11 -57 1 -102 4 -100 8 2 3 -6
6 -19 6 -13 0 -21 -4 -18 -9 3 -4 -5 -5 -18 -1 -13 4 -27 12 -30 18 -4 5 -9 2
-10 -8 -4 -18 -5 -18 -23 1 -16 16 -19 16 -14 2 10 -24 -12 -38 -42 -26 -15 6
-20 12 -13 15 7 3 13 9 13 14 0 13 -57 11 -65 -2 -8 -12 -54 -9 -72 4 -7 5
-13 18 -13 28 0 16 12 18 138 21 75 2 373 5 662 6 l525 1 3 90 c4 116 -17 214
-68 315 -92 186 -272 322 -477 362 -156 30 -284 11 -433 -62 -131 -65 -239
-172 -299 -296 -42 -86 -70 -189 -72 -263 -1 -50 -13 -84 -23 -67 -4 7 -4 16
-1 22 3 5 1 18 -4 27 -10 17 -10 17 -11 1 0 -13 -8 -18 -30 -18 -19 0 -30 5
-30 14 0 9 7 12 19 9 10 -3 22 0 25 6 5 7 -3 11 -18 11 -14 0 -26 5 -26 10 0
6 14 10 30 10 17 0 30 -4 30 -10 0 -5 4 -10 10 -10 5 0 7 7 4 15 -4 9 -19 15
-40 15 -19 0 -34 5 -34 11 0 8 14 10 41 6 34 -4 40 -3 34 11 -3 8 0 19 7 24
10 6 9 11 -5 22 -18 14 -18 14 0 19 14 4 14 5 -4 6 -25 1 -32 31 -8 31 8 0 15
5 15 11 0 6 -8 8 -17 5 -16 -5 -18 0 -14 45 3 57 11 60 13 5 l1 -36 19 30 c10
17 18 34 18 39 0 4 11 14 25 21 28 15 34 34 23 74 -6 23 -3 32 15 46 22 18 21
18 -28 14 -44 -3 -46 -2 -15 5 19 5 42 11 51 15 12 5 18 0 23 -16 6 -17 9 -19
13 -8 4 8 13 21 20 29 8 8 13 24 10 36 -3 20 1 23 36 28 22 3 45 11 51 17 6 6
7 11 1 10 -28 -6 -35 0 -23 19 7 11 16 17 20 15 4 -3 8 4 8 15 0 25 22 32 36
13 10 -13 14 -12 34 11 23 27 50 36 50 17 0 -5 15 -1 33 9 17 10 49 24 69 31
30 9 40 18 46 43 8 30 9 31 16 10 11 -33 44 -30 48 5 l4 27 11 -25 c7 -14 12
-19 12 -11 1 11 5 10 25 -2 21 -14 25 -14 39 0 16 17 41 9 31 -10 -3 -7 2 -3
10 7 9 11 16 22 16 25 0 3 28 6 63 7 45 0 65 -4 74 -15 11 -14 12 -14 13 -1 0
21 87 20 101 -1 7 -10 9 -8 7 11 -2 15 5 31 17 41 18 15 18 18 3 33 -16 15
-18 15 -27 -1 -9 -16 -11 -15 -20 10 -12 32 -41 36 -48 7 -8 -29 -23 -24 -23
8 0 22 -5 27 -25 28 -21 2 -25 -2 -25 -27 0 -40 -18 -37 -22 4 -2 24 -8 33
-25 35 -20 3 -23 -1 -23 -32 0 -20 -4 -36 -10 -36 -5 0 -10 15 -10 33 0 27 -4
33 -22 34 -12 1 -26 -3 -30 -10 -5 -8 -8 -6 -8 6 0 20 -11 22 -28 5 -9 -9 -12
-9 -12 0 0 6 -11 11 -25 10 -24 -2 -41 -30 -33 -54 2 -5 -1 -9 -6 -9 -6 0 -10
11 -10 25 -1 31 -45 43 -48 13 0 -10 -2 -24 -2 -30 -2 -22 -20 -14 -21 10 0
15 -7 23 -22 25 -14 2 -24 -2 -25 -10 0 -7 -2 -19 -2 -25 -2 -21 -21 -15 -24
7 -5 30 -32 22 -45 -12 -8 -22 -27 -23 -27 -2 0 11 -5 14 -17 9 -10 -4 -31
-11 -48 -16 -16 -4 -56 -21 -87 -36 -44 -21 -58 -33 -58 -50 0 -22 -19 -43
-21 -24 -1 11 -4 24 -9 39 -1 4 -6 -4 -10 -18 -8 -25 -8 -25 -9 -2 -1 34 -21
16 -21 -19 0 -16 -4 -29 -10 -29 -5 0 -10 16 -10 35 0 19 5 35 11 35 6 0 38
20 72 44 34 24 99 61 145 82 69 31 82 41 82 61 l0 23 -240 0 c-153 0 -240 -4
-240 -10 0 -5 -7 -10 -16 -10 -8 0 -12 5 -9 10 3 6 -3 10 -14 10 -12 0 -21 -7
-21 -15 0 -8 -4 -15 -10 -15 -5 0 -10 7 -10 15 0 8 -4 15 -9 15 -5 0 -11 -7
-15 -15 -3 -8 -10 -15 -17 -15 -6 0 -9 7 -5 15 4 12 -6 15 -64 15 -56 0 -70
-3 -70 -15 0 -8 -4 -15 -10 -15 -5 0 -10 7 -10 15 0 11 -12 15 -50 15 -38 0
-50 -4 -50 -15 0 -8 -4 -15 -10 -15 -5 0 -7 7 -4 15 5 12 -6 15 -65 15 -56 0
-71 -3 -71 -15 0 -8 -5 -15 -10 -15 -6 0 -13 7 -16 15 -4 8 -10 15 -15 15 -5
0 -9 -7 -9 -15 0 -8 -7 -15 -15 -15 -9 0 -12 6 -9 15 7 18 -22 21 -30 3 -5
-10 -7 -10 -12 0 -4 9 -156 12 -710 12 l-704 0 0 -1890z m919 1209 c29 -10 32
-15 29 -47 -4 -53 -31 -63 -143 -56 -49 3 -96 10 -102 16 -16 13 -17 60 -1 76
7 7 25 12 42 12 28 0 28 -1 11 -14 -22 -16 -14 -49 10 -40 8 3 15 1 15 -5 0
-14 77 -15 85 -1 3 6 15 10 26 10 31 0 17 23 -22 36 -33 11 -31 14 12 23 3 0
20 -4 38 -10z m2671 -544 c7 -8 10 -30 8 -49 l-4 -34 25 20 c24 18 26 18 38 2
7 -10 13 -26 13 -35 0 -12 10 -19 33 -22 17 -2 -12 -5 -65 -5 -54 -1 -98 1
-98 6 0 4 -14 15 -31 25 -28 15 -31 21 -25 49 3 17 11 37 17 45 15 18 74 17
89 -2z m-1577 -145 c3 0 8 8 10 18 3 9 5 -60 6 -153 l1 -171 -44 -43 c-34 -33
-48 -41 -60 -34 -15 8 -13 14 14 54 16 24 30 50 30 57 0 14 -59 77 -78 83 -7
3 -2 17 15 37 19 25 28 30 34 20 6 -10 13 -7 31 11 14 16 18 26 10 29 -7 2
-12 8 -12 14 0 6 6 5 15 -2 25 -21 40 3 15 25 -16 14 -22 15 -35 5 -10 -8 -15
-9 -15 -1 0 6 5 11 10 11 6 0 10 5 10 11 0 7 -10 9 -24 5 l-25 -6 27 28 c23
24 29 26 43 15 8 -7 18 -13 22 -13z m1709 -13 c256 -2 263 -3 263 -22 0 -11 3
-22 6 -25 4 -3 1 -11 -7 -18 -12 -11 -14 -7 -15 25 0 21 -3 32 -6 26 -3 -10
-62 -13 -244 -13 l-240 0 -27 27 c-15 15 -20 21 -10 14 11 -8 90 -13 280 -14z
m-908 -122 c7 -20 24 -19 29 3 3 9 5 -4 6 -30 l1 -48 -250 0 -250 0 0 30 c0
23 4 30 20 30 13 0 20 -7 20 -20 0 -11 5 -20 10 -20 6 0 10 9 10 20 0 28 30
25 31 -2 l2 -23 4 23 c5 27 33 29 33 2 0 -11 5 -20 10 -20 6 0 10 9 10 20 0
28 30 25 31 -2 l2 -23 4 23 c5 27 33 29 33 2 0 -11 5 -20 10 -20 6 0 10 9 10
20 0 28 30 25 31 -2 l2 -23 4 23 c7 36 40 26 34 -10 0 -5 4 -8 9 -8 6 0 10 9
10 20 0 28 30 25 31 -2 l2 -23 4 23 c3 14 12 22 24 22 11 0 18 -4 15 -8 -2 -4
-1 -14 5 -22 7 -12 9 -10 9 8 0 13 6 22 15 22 9 0 15 -10 16 -22 1 -17 3 -18
6 -6 2 9 -1 26 -7 37 -6 12 -7 21 -1 21 5 0 11 -7 15 -15z m-2074 -35 c0 -13
6 -20 18 -19 10 0 12 3 5 6 -17 6 -16 33 1 33 7 0 16 -9 19 -20 3 -12 13 -20
24 -19 16 1 16 2 1 6 -10 2 -18 11 -18 18 0 17 71 18 82 1 6 -8 8 -7 8 1 0 8
33 12 115 12 l115 1 0 -30 0 -30 -250 0 c-160 0 -250 4 -250 10 0 11 9 12 80
12 25 1 37 3 28 5 -25 6 -23 33 2 33 13 0 20 -7 20 -20z m1062 -265 c-8 -47
-3 -71 22 -92 31 -26 32 -33 8 -33 -24 0 -46 -54 -48 -117 -1 -38 3 -53 13
-53 10 0 13 -25 13 -109 l0 -110 -67 1 c-38 0 -75 -2 -83 -3 -12 -3 -15 8 -15
61 0 45 4 65 13 65 6 0 12 3 12 8 0 4 -3 7 -7 6 -11 -1 -20 32 -15 58 5 26 27
31 36 7 3 -8 11 -12 17 -9 7 5 3 14 -10 26 -25 24 -27 48 -4 64 15 12 14 15
-15 45 -18 17 -32 37 -32 45 0 7 -10 16 -22 19 -23 6 -23 7 4 22 15 8 30 25
34 39 8 31 45 55 85 55 22 0 30 4 26 14 -4 9 2 13 16 12 16 -1 21 -7 19 -21z
m2154 10 c-1 -8 -17 -31 -36 -50 -36 -37 -36 -55 -1 -33 12 7 19 19 16 25 -5
15 11 18 20 4 3 -5 -6 -19 -21 -30 -14 -11 -23 -25 -19 -31 5 -9 10 -9 18 -1
15 15 27 14 27 -4 0 -13 -23 -15 -142 -15 -79 0 -154 -3 -167 -7 -19 -5 -23
-3 -18 9 3 9 -2 23 -13 33 -15 14 -21 14 -39 3 -13 -8 -19 -19 -15 -30 4 -14
0 -18 -20 -18 -27 0 -36 23 -14 36 7 5 8 3 3 -7 -5 -8 1 -6 13 5 12 10 19 23
16 27 -3 5 3 6 12 2 13 -5 16 -3 11 10 -4 11 -2 14 9 10 7 -3 14 -9 14 -14 0
-14 20 -11 36 6 9 8 12 20 8 26 -4 7 7 3 25 -7 17 -10 29 -24 27 -30 -6 -17
14 -33 32 -27 10 4 13 2 8 -5 -5 -8 4 -12 31 -11 31 0 34 2 18 9 -18 9 -18 9
5 8 51 -2 70 2 70 17 0 8 4 15 8 15 5 0 15 11 22 25 7 14 19 25 27 25 15 0 18
16 4 24 -5 3 -17 -6 -27 -19 -25 -33 -34 -31 -34 5 0 29 2 30 44 30 34 0 44
-4 42 -15z m-1958 -38 l31 -32 1 -156 2 -156 59 -59 c37 -37 55 -61 47 -65 -6
-4 -74 -8 -151 -8 -77 -1 -144 -4 -148 -7 -14 -8 -20 37 -17 121 l3 80 30 -1
c21 0 41 11 69 38 22 21 36 41 32 45 -4 4 -11 1 -16 -7 -8 -12 -10 -10 -10 8
0 31 -43 72 -75 72 -14 0 -25 5 -25 10 0 6 14 10 31 10 16 0 28 4 25 9 -4 5 6
23 21 39 48 51 55 63 49 78 -9 23 8 16 42 -19z m-966 -357 l-1 -95 -133 3
c-99 2 -137 7 -148 18 -12 12 -12 14 1 14 8 0 19 -3 25 -8 13 -10 174 -3 174
9 0 5 -36 9 -79 9 -44 0 -83 5 -86 10 -4 6 33 10 102 11 59 0 101 3 93 6 -8 2
-24 8 -35 13 -11 5 -51 11 -90 14 -78 5 -115 14 -115 27 0 12 27 11 35 -1 8
-13 163 -11 171 1 3 5 -1 9 -8 9 -7 1 -44 2 -83 3 -111 3 -79 22 36 21 56 0
92 3 81 7 -42 16 -35 30 14 27 l47 -3 -1 -95z m-60 -524 c22 -22 25 -32 17
-42 -14 -17 -16 -17 -25 -2 -5 7 -3 8 6 3 9 -5 11 -4 6 4 -14 21 -25 1 -19
-34 4 -26 1 -41 -12 -55 -16 -17 -31 -20 -117 -20 -55 0 -108 5 -119 10 -23
13 -26 71 -5 89 7 6 60 12 123 14 61 1 107 4 103 7 -4 3 -9 22 -12 42 -4 41 0
40 54 -16z"/>
<path d="M3070 3773 c0 -5 35 -18 78 -30 284 -79 537 -306 649 -583 48 -121
65 -208 68 -350 l3 -135 136 3 c149 4 193 -4 240 -47 59 -54 56 16 56 -1297 0
-1329 4 -1244 -61 -1298 -16 -14 -29 -27 -29 -30 0 -3 119 -6 265 -6 l265 0 0
1890 0 1890 -835 0 c-459 0 -835 -3 -835 -7z"/>
<path d="M3222 3583 c-16 -22 -20 -23 -16 -8 5 15 4 17 -4 6 -6 -8 -8 -21 -4
-29 4 -11 1 -13 -9 -7 -8 4 -11 5 -7 1 4 -5 3 -19 -2 -32 -8 -19 -6 -24 6 -24
8 0 13 -4 9 -9 -9 -15 36 -4 55 14 18 16 50 21 50 7 0 -5 -8 -17 -18 -28 -10
-10 -21 -27 -25 -36 -5 -15 -1 -18 22 -18 15 0 31 -3 34 -7 4 -3 18 -8 32 -9
22 -2 23 -1 10 12 -16 17 -9 37 30 83 l20 23 -20 -4 c-25 -6 -78 19 -69 33 9
15 -15 38 -36 34 -11 -2 -23 3 -28 11 -6 11 -12 9 -30 -13z"/>
<path d="M2774 1841 c-127 -58 -175 -199 -113 -328 17 -35 79 -95 110 -105 5
-2 -15 -136 -44 -298 l-53 -295 194 -3 c107 -1 197 0 200 2 2 3 -21 135 -52
293 l-56 288 22 15 c83 56 128 132 128 214 0 94 -62 187 -147 223 -46 19 -140
16 -189 -6z"/>
<path d="M2324 1705 c-10 -8 -14 -15 -9 -14 39 5 41 -26 2 -34 -22 -4 -22 -4
1 -6 12 0 22 -7 22 -15 0 -7 -10 -17 -22 -21 l-23 -8 23 -4 c26 -5 30 -30 5
-36 -17 -4 -17 -5 0 -6 25 -2 21 -30 -5 -41 -23 -9 -23 -9 -2 -9 30 -1 40 -31
11 -32 -18 -1 -18 -2 -4 -6 16 -4 17 -12 11 -75 -5 -52 -4 -69 5 -64 7 5 11
-1 11 -14 0 -13 4 -18 11 -15 6 4 5 -2 -3 -14 -7 -12 -14 -17 -16 -11 -2 5
-11 10 -19 10 -9 0 -22 8 -29 18 -13 16 -15 16 -28 0 -11 -15 -30 -18 -115
-18 l-101 0 0 -25 c0 -24 -2 -25 -68 -25 -75 0 -92 -10 -92 -51 0 -33 32 -59
71 -59 15 0 30 -6 32 -12 3 -7 6 10 6 39 l1 51 35 0 c25 0 35 -4 35 -16 0 -12
3 -13 12 -4 7 7 26 12 44 12 17 0 37 7 44 15 17 20 50 19 50 -1 0 -12 -6 -15
-22 -11 -13 4 -29 0 -38 -8 -9 -8 -37 -15 -63 -16 -49 -2 -52 -5 -38 -27 6
-10 10 -10 21 3 14 17 56 20 65 5 4 -6 -8 -10 -30 -10 -70 0 -54 -56 18 -63
l42 -4 -44 -1 c-31 -2 -48 3 -57 16 -12 16 -13 15 -13 -8 1 -31 17 -75 18 -47
1 10 9 17 22 17 15 0 20 -6 19 -22 -4 -51 1 -118 8 -118 5 0 8 18 7 40 -1 23
2 43 7 46 4 3 8 -27 8 -67 0 -40 2 -70 6 -67 10 10 6 130 -5 141 -6 6 -11 19
-11 28 0 14 14 18 78 23 71 7 142 30 142 48 0 12 -14 10 -28 -4 -7 -7 -12 -10
-12 -7 0 3 12 16 27 28 22 20 25 21 19 5 -5 -14 1 -11 23 10 16 15 27 35 24
42 -4 10 0 13 13 8 18 -5 18 -5 2 6 -20 12 -23 46 -8 70 7 11 10 5 12 -25 1
-33 3 -30 8 20 l7 60 1 -81 2 -82 -67 -58 c-38 -32 -74 -65 -81 -73 -14 -17
-16 -267 -2 -276 4 -2 16 3 26 13 16 14 19 31 18 92 -1 70 0 71 3 10 2 -36 6
-72 10 -80 3 -8 6 -18 5 -21 -4 -20 40 -37 103 -41 39 -3 57 -3 42 -1 -39 6
-28 27 14 26 25 0 34 -4 33 -16 -1 -10 3 -17 10 -17 6 0 11 18 11 45 0 36 -3
45 -17 45 -10 0 -18 6 -18 13 0 9 -2 9 -8 0 -5 -7 -37 -15 -73 -19 -54 -4 -61
-3 -48 8 9 7 17 16 17 21 1 4 5 7 10 6 4 -1 6 -5 5 -10 -2 -5 2 -9 7 -9 7 0 8
13 4 35 -4 23 -2 35 5 35 6 0 11 5 11 11 0 5 -4 7 -10 4 -13 -8 -13 18 -1 31
6 5 6 27 1 53 -4 25 -5 51 -2 59 4 11 1 13 -9 7 -8 -4 7 14 33 40 53 53 71 52
62 -4 -4 -24 -2 -41 5 -45 8 -5 11 10 11 49 0 40 -3 54 -12 49 -8 -5 -9 -2 -5
10 4 10 7 20 7 22 0 3 5 2 10 -1 6 -3 10 -1 10 5 0 7 -7 9 -16 6 -9 -3 -24 -6
-35 -6 -14 0 -19 -7 -19 -26 0 -17 -4 -23 -12 -18 -7 4 -10 3 -5 -1 4 -5 0
-17 -9 -27 -14 -14 -20 -16 -33 -6 -9 7 -13 8 -9 4 4 -5 2 -16 -5 -24 -10 -13
-9 -14 2 -7 9 5 12 4 8 -2 -4 -6 -17 -8 -31 -6 -13 3 -27 0 -30 -6 -4 -6 2 -8
14 -6 11 2 18 0 15 -6 -4 -5 -10 -7 -15 -4 -5 3 -11 1 -15 -5 -4 -6 -11 -8
-16 -5 -5 4 -9 1 -9 -4 0 -6 -5 -10 -11 -9 -7 2 -12 -41 -16 -122 -3 -69 -8
-128 -11 -132 -4 -4 -7 49 -7 117 l0 124 79 80 78 79 -1 76 c-1 69 1 76 18 76
11 0 22 6 24 13 3 6 6 2 6 -11 1 -15 -3 -21 -11 -16 -6 4 -8 3 -4 -4 3 -6 -1
-15 -10 -20 -13 -7 -15 -19 -11 -53 3 -24 6 -46 6 -48 1 -3 8 4 16 15 17 22
20 54 5 54 -5 0 -10 7 -10 15 0 10 10 15 30 15 29 0 30 2 30 43 0 30 -3 38
-10 27 -5 -8 -7 -22 -4 -32 2 -9 1 -19 -4 -22 -5 -3 -8 10 -7 29 l1 35 -88 0
c-48 0 -89 4 -92 8 -3 5 -2 19 1 31 7 27 49 26 47 -1 -1 -10 3 -15 8 -12 5 4
8 14 5 24 -3 13 0 17 9 13 8 -3 14 0 14 7 0 6 4 9 9 6 4 -3 7 -18 5 -33 -4
-27 -3 -28 5 -3 9 30 -4 51 -26 43 -11 -4 -14 -2 -9 5 4 7 3 12 -3 12 -5 0
-12 -6 -14 -12 -4 -10 -6 -10 -6 0 -1 7 -7 10 -13 7 -7 -4 -6 -1 2 7 11 10 14
31 12 88 -2 41 -7 80 -12 85 -4 6 -6 18 -5 27 2 9 -4 19 -12 22 -8 4 -13 13
-9 21 7 19 -5 19 -30 0z"/>
<path d="M3986 1633 c-1 -1 -119 -3 -261 -4 l-260 -3 -75 -72 -75 -73 0 -122
0 -121 -59 -54 -59 -54 34 -1 34 -1 -30 -7 -30 -7 37 -7 c38 -8 58 -34 32 -44
-13 -5 -13 -8 2 -24 25 -28 9 -93 -24 -97 -23 -4 -71 -42 -53 -42 6 0 13 5 16
10 3 6 18 9 33 9 21 -1 23 -2 7 -6 -37 -9 -47 -25 -40 -61 4 -24 2 -38 -7 -43
-10 -7 -10 -9 0 -9 6 0 12 -9 12 -21 0 -17 -4 -19 -22 -13 -22 6 -22 6 2 -14
14 -11 21 -24 17 -28 -4 -5 -11 -4 -15 1 -4 6 -16 11 -27 12 -11 1 -14 0 -7
-3 7 -3 20 -20 28 -36 l16 -31 -34 24 c-28 20 -31 20 -15 3 9 -12 14 -24 10
-27 -3 -4 3 -7 13 -7 11 0 25 -5 32 -12 7 -7 30 -11 52 -9 31 2 40 -1 40 -13
0 -21 -48 -21 -86 -1 -36 18 -46 9 -16 -15 12 -10 22 -25 22 -34 0 -8 5 -18
12 -22 6 -4 8 -3 5 3 -4 6 11 17 33 26 27 10 42 12 46 5 4 -7 2 -8 -4 -4 -8 5
-12 0 -12 -13 0 -10 -6 -22 -12 -24 -8 -3 -6 -6 5 -6 10 -1 17 -9 17 -19 0
-10 3 -22 7 -26 4 -4 8 -15 8 -23 0 -9 7 -19 15 -21 13 -5 13 -3 1 11 -7 10
-10 17 -5 17 4 0 3 5 -4 12 -18 18 -15 27 8 21 10 -3 22 -14 25 -24 7 -22 25
-26 25 -5 0 8 -13 26 -30 39 -32 27 -37 46 -20 78 6 10 7 19 3 19 -4 0 -17 7
-28 16 -17 13 -18 16 -5 24 12 7 12 12 2 22 -16 16 -15 28 3 28 9 0 12 6 8 16
-6 15 -7 15 -19 0 -13 -19 -81 -19 -76 -1 2 6 14 9 27 7 13 -2 37 6 54 19 26
19 28 24 19 51 -6 16 -13 27 -15 24 -3 -3 -12 2 -20 10 -8 8 -23 12 -33 9 -9
-3 -25 -2 -34 1 -14 5 -15 9 -4 15 22 14 78 11 78 -5 0 -8 7 -16 15 -20 8 -3
15 -1 15 4 0 5 7 15 15 24 14 13 12 15 -12 13 -23 -2 -27 2 -29 26 -3 31 3 34
21 10 10 -14 11 -12 8 13 -9 58 63 97 100 56 17 -19 23 -63 10 -76 -11 -11
-11 -49 0 -71 8 -18 7 -17 -12 3 -28 29 -33 28 -19 -3 14 -31 1 -47 -18 -21
-11 16 -14 17 -14 4 0 -19 24 -30 45 -22 20 8 19 -5 -1 -27 -15 -16 -14 -17 3
-13 11 3 25 -2 32 -10 8 -9 22 -16 32 -16 10 0 21 -5 24 -10 4 -6 11 -8 16 -5
5 4 9 1 9 -4 0 -6 14 -11 30 -11 20 0 30 -5 30 -15 0 -23 -77 -21 -84 2 -4 15
-5 15 -4 -2 1 -52 0 -54 -38 -48 -40 7 -39 13 -20 -65 7 -33 -1 -47 -31 -50
-36 -3 -40 -10 -12 -20 24 -9 28 -24 29 -104 0 -15 4 -29 10 -33 18 -11 10
-25 -14 -25 -33 0 -39 -13 -41 -84 -2 -85 3 -92 76 -100 34 -3 67 -10 73 -15
13 -10 102 -18 111 -9 3 3 27 1 53 -4 26 -5 76 -7 112 -3 36 3 109 6 162 6 79
1 102 4 121 19 13 10 34 22 48 25 36 9 58 29 61 55 3 19 -4 25 -40 37 -26 9
-41 20 -38 26 4 7 9 20 12 29 3 9 19 20 35 23 20 5 31 14 35 31 8 29 -3 77
-16 69 -17 -10 -22 16 -6 34 20 22 21 41 1 41 -8 0 -15 9 -15 19 0 12 -11 23
-30 29 -21 8 -28 16 -24 26 6 16 -8 21 -48 17 -10 -1 -18 4 -18 13 0 11 9 16
30 16 23 0 33 7 45 30 9 16 22 30 30 30 8 0 15 7 15 16 0 11 -5 14 -16 10 -14
-5 -15 -4 -5 8 7 9 22 18 33 22 18 5 19 13 16 78 -5 84 -9 93 -49 103 l-30 8
25 38 26 37 -31 -16 c-30 -15 -32 -15 -47 8 -9 13 -16 25 -15 28 1 3 -5 9 -13
13 -8 4 -14 16 -14 26 0 10 -11 23 -24 29 -21 9 -27 8 -40 -13 -20 -30 -20
-35 -1 -35 8 0 15 4 15 10 0 5 7 7 15 4 8 -4 15 -10 15 -15 0 -4 -7 -6 -15 -3
-8 4 -17 -1 -21 -10 -8 -20 -38 -21 -54 -1 -10 12 -8 20 12 43 12 16 35 36 51
45 26 15 27 15 27 -3 0 -13 7 -20 20 -20 11 0 20 3 21 8 0 4 2 17 5 29 3 17
-2 23 -24 26 -21 3 -18 5 13 6 22 2 34 5 28 8 -21 8 -15 22 7 16 31 -8 26 -56
-8 -85 -26 -22 -27 -24 -9 -41 23 -23 53 -18 50 8 -1 10 7 31 17 45 10 14 22
44 26 65 4 22 12 43 18 47 7 5 4 8 -6 8 -15 0 -18 9 -18 50 0 35 5 52 16 58
15 8 15 10 -1 16 -9 3 -21 4 -26 0 -5 -3 -9 -1 -9 4 0 14 -38 22 -43 8 -3 -6
-8 -3 -12 7 -6 14 0 26 19 44 14 13 24 28 21 33 -3 5 -1 11 4 14 10 6 4 44
-10 62 -15 18 1 23 29 8 35 -18 53 -18 46 0 -3 8 -18 18 -33 21 -16 3 -39 16
-52 28 -17 16 -40 23 -87 27 -35 3 -64 4 -66 3z m-439 -53 c-52 -10 -58 -20
-11 -20 46 0 64 -14 64 -48 0 -27 -29 -82 -43 -82 -5 0 -7 -9 -4 -21 4 -15 2
-19 -10 -15 -8 3 -21 6 -29 6 -9 0 -13 4 -9 9 3 5 1 12 -5 16 -6 4 -8 11 -5
16 4 5 -1 19 -9 31 -9 12 -16 30 -16 40 0 9 -5 20 -12 24 -7 4 -8 3 -4 -4 4
-7 2 -12 -4 -12 -6 0 -10 -6 -9 -12 3 -28 -2 -36 -27 -42 -20 -5 -24 -11 -18
-28 4 -14 2 -18 -5 -14 -6 4 -11 1 -11 -7 0 -16 -24 -30 -34 -20 -3 4 -6 22
-5 42 0 32 8 43 67 93 64 55 69 57 122 56 52 0 53 -1 17 -8z m374 -85 c3 -39
7 -68 8 -65 4 9 13 84 13 108 0 28 7 28 37 -3 12 -14 28 -22 34 -18 6 3 7 1 3
-5 -4 -6 -2 -20 3 -30 12 -23 -6 -82 -25 -82 -7 0 -15 -8 -18 -17 -5 -13 -9
-14 -15 -5 -6 10 -11 9 -21 -3 -12 -14 -11 -18 1 -27 12 -8 11 -9 -2 -5 -9 3
-22 0 -28 -6 -10 -9 -11 -5 -5 17 5 22 4 27 -7 24 -8 -3 -13 -15 -12 -27 2
-13 -3 -21 -13 -21 -9 0 -14 7 -12 18 2 10 -3 17 -12 17 -8 0 -14 -6 -12 -12
1 -8 -9 -13 -25 -12 -17 0 -22 3 -13 6 26 10 40 36 28 51 -8 9 -8 16 -1 23 8
8 11 7 10 -2 -1 -8 2 -15 7 -16 5 0 13 -8 18 -17 8 -14 10 -14 27 1 11 9 17
22 14 29 -7 19 -21 18 -25 -1 -2 -13 -6 -12 -16 5 -11 18 -10 20 18 20 30 0
30 0 30 59 0 48 -3 61 -17 65 -14 4 -14 4 2 3 17 -2 21 -12 26 -72z"/>
<path d="M2215 430 c-88 -5 -90 -5 -89 -30 1 -14 5 -35 9 -47 6 -18 3 -23 -11
-23 -18 -1 -18 -1 -1 -14 21 -16 22 -36 2 -36 -8 0 -15 -4 -15 -10 0 -5 4 -10
9 -10 14 0 31 26 30 46 -4 42 2 84 11 84 6 0 10 -8 10 -18 0 -10 6 -24 13 -31
10 -11 10 -13 0 -7 -8 5 -13 1 -13 -10 0 -15 4 -14 25 6 14 13 25 32 25 42 0
10 5 18 10 18 6 0 10 -13 10 -29 0 -16 6 -32 13 -35 10 -5 10 -7 0 -12 -7 -3
-13 -13 -13 -22 1 -14 3 -14 16 3 13 17 16 18 24 5 6 -9 10 -10 10 -3 0 6 -7
18 -15 27 -8 8 -15 19 -15 25 0 15 20 14 21 -1 0 -7 6 3 12 22 10 33 11 33 15
10 7 -43 52 -57 52 -16 0 14 5 28 10 31 6 4 10 -8 10 -29 0 -45 12 -46 28 -2
12 31 8 64 -7 67 -18 4 -106 3 -186 -1z"/>
</g>
</svg>
